<!--?xml version="1.0" encoding="utf-8"?-->
<!-- Generator: Adobe Illustrator 18.1.1, SVG Export Plug-In . SVG Version: 6.00 Build 0)  -->

<svg version="1.1" id="_x32_" xmlns="http://www.w3.org/2000/svg" xmlns:xlink="http://www.w3.org/1999/xlink" x="0px" y="0px" viewBox="0 0 512 512" style="width: 48px; height: 48px; opacity: 1;" xml:space="preserve">
<style type="text/css">
	.st0{fill:#4B4B4B;}
</style>
<g>
	<path class="st0" d="M497.731,25.247c-11.723-11.727-29.506-12.939-39.721-2.728l-38.217,38.213
		c-10.211,10.212-29.59,29.597-29.59,29.597s9.837,9.829,22.641,22.641c26.885,26.885,41.002,21.739,57.32-3.718
		c9.251-34.144,20.08-34.08,30.296-44.292C510.671,54.749,509.454,36.967,497.731,25.247z" style="fill: rgb(75, 75, 75);"></path>
	<path class="st0" d="M435.573,22.814c1.06,1.061,2.764,1.061,3.821,0l13.032-13.036c1.061-1.061,1.061-2.768,0-3.822l-5.161-5.161
		c-1.057-1.061-2.764-1.061-3.822,0l-13.036,13.027c-1.057,1.053-1.057,2.769,0.004,3.822L435.573,22.814z" style="fill: rgb(75, 75, 75);"></path>
	<path class="st0" d="M410.251,48.127c1.057,1.07,2.765,1.07,3.818,0.016l13.04-13.036c1.053-1.061,1.053-2.776,0-3.83l-5.165-5.161
		c-1.057-1.061-2.769-1.061-3.822,0l-13.04,13.036c-1.053,1.045-1.053,2.76,0.008,3.822L410.251,48.127z" style="fill: rgb(75, 75, 75);"></path>
	<path class="st0" d="M384.929,73.457c1.057,1.061,2.764,1.061,3.818,0.008l13.036-13.036c1.057-1.053,1.057-2.768,0-3.83
		l-5.166-5.17c-1.053-1.053-2.764-1.053-3.821,0L379.76,64.466c-1.053,1.061-1.053,2.777,0.004,3.83L384.929,73.457z" style="fill: rgb(75, 75, 75);"></path>
	<polygon class="st0" points="235.982,332.278 185.048,281.348 163.66,302.745 214.593,353.666 	" style="fill: rgb(75, 75, 75);"></polygon>
	<polygon class="st0" points="199.372,368.896 148.438,317.958 127.042,339.354 177.979,390.284 	" style="fill: rgb(75, 75, 75);"></polygon>
	<polygon class="st0" points="85.303,381.086 136.241,432.032 158.873,409.391 107.939,358.453 	" style="fill: rgb(75, 75, 75);"></polygon>
	<path class="st0" d="M372.868,262.84c-7.08,0.16-14.288,2.466-20.83,6.718c-9.968,6.43-19.829,7.986-30.016,6
		c-6.697-1.332-13.522-4.548-20.132-9.19l-12.964,12.956c9.071,6.909,19.047,11.775,29.558,13.897
		c14.392,2.952,29.777,0.367,43.395-8.584c3.877-2.537,8.045-3.733,11.332-3.782c3.354-0.064,5.48,0.934,6.538,2.026
		c0.854,0.902,1.568,2.01,1.735,4.787c0.132,2.712-0.627,7.068-3.332,12.86c-2.452,5.265-5.344,9.222-8.627,12.509
		c-3.718,3.717-8.006,6.605-12.876,9.158c-7.284,3.821-15.836,6.749-24.699,10.499c-8.831,3.765-18.106,8.472-26.087,16.434
		c-8.309,8.265-14.731,19.929-17.874,35.836c-7.619,38.07-21.636,65.961-39.486,83.782c-10.399,10.387-22.078,17.464-34.966,21.46
		c-12.88,3.973-27.052,4.882-42.454,2.425c-19.972-3.174-37.854-12.014-52.705-22.122c-14.858-10.092-26.569-21.356-34.316-29.111
		c-1.651-1.643-3.119-3.127-4.42-4.435c-1.292-1.285-2.78-2.76-4.424-4.404c-7.754-7.754-19.019-19.466-29.114-34.32
		c-10.096-14.854-18.939-32.74-22.122-52.7c-2.453-15.461-1.564-29.757,2.445-42.777c4.021-13.019,11.144-24.834,21.595-35.293
		c17.806-17.838,45.569-31.703,83.522-38.812c13.81-2.592,25.106-6.23,34.516-10.761c9.406-4.531,16.893-10.004,22.9-16.02
		c11.3-11.328,17.232-24.148,22.876-35.868c5.652-11.807,10.985-22.546,20.311-31.863c1.049-1.053,2.17-2.106,3.338-3.127
		c9.226-8.057,18.11-12.366,26.295-14.519c8.181-2.138,15.74-2.107,22.146-1.053c1.815,0.255,4.053,1.388,4.87,2.281l0.543,0.718
		l-0.024,0.542c-0.156,0.559-0.798,1.995-2.868,4.053c-1.751,1.764-4.488,3.925-8.405,6.271c-4.029,2.425-8.301,5.744-12.541,9.972
		c-5.517,5.512-10.942,12.589-15.162,21.157c-6.346,12.812-9.88,29.167-6.534,47.643c0.678,3.765,1.711,7.619,2.964,11.536
		l14.798-14.799c-1.727-9.645-1.101-18.198,0.906-25.768c3.044-11.384,9.382-20.662,15.764-27.037
		c3.235-3.246,6.486-5.72,9.071-7.267c4.882-2.928,8.775-5.88,11.875-8.976c2.413-2.409,4.344-4.914,5.756-7.642
		c2.134-4.029,2.956-8.68,2.134-12.892c-0.79-4.228-2.992-7.707-5.545-10.243c-4.264-4.181-9.43-6.414-14.691-7.324
		c-8.572-1.404-18.74-1.444-29.621,1.412c-10.882,2.848-22.418,8.608-33.582,18.38c-1.472,1.292-2.884,2.609-4.224,3.949
		c-11.843,11.855-18.138,25.018-23.814,36.81c-5.668,11.87-10.746,22.321-19.37,30.921c-4.616,4.611-10.292,8.808-17.994,12.525
		c-7.694,3.726-17.443,6.925-30.008,9.287c-40.487,7.594-71.771,22.64-92.937,43.781C22.909,267.1,14.097,281.572,9.215,297.447
		c-4.894,15.884-5.859,33.092-3.015,50.93c3.758,23.439,13.917,43.654,25.014,59.985C42.319,424.7,54.465,437.265,62.49,445.29
		c1.671,1.676,3.163,3.159,4.42,4.42c1.256,1.245,2.736,2.745,4.412,4.42c8.03,8.01,20.599,20.168,36.929,31.273
		c16.334,11.104,36.554,21.252,59.992,25.01c17.775,2.848,34.867,1.875,50.619-3.008c15.756-4.866,30.092-13.634,42.378-25.927
		c21.137-21.173,36.286-52.477,44.404-92.973c2.688-13.187,7.3-20.926,12.956-26.646c3.658-3.654,7.91-6.502,12.756-9.031
		c7.248-3.797,15.8-6.709,24.691-10.483c8.86-3.789,18.173-8.544,26.211-16.578c4.731-4.715,8.927-10.546,12.222-17.646
		c3.558-7.659,5.253-14.679,4.99-21.228c-0.223-6.502-2.74-12.573-6.984-16.762C387.136,264.81,379.884,262.696,372.868,262.84z" style="fill: rgb(75, 75, 75);"></path>
	<polygon class="st0" points="210.517,272.844 244.474,306.806 418.5,132.771 384.547,98.818 	" style="fill: rgb(75, 75, 75);"></polygon>
</g>
</svg>
